{
	"asset": {
		"generator": "Tilt Brush 23.3.d548293cc",
		"version": "1.1",
		"copyright": "Unknown."
	},
	"buffers": {
		"buffer_sketch": {
			"byteLength": 588288,
			"type": "arraybuffer",
			"uri": "sketch.bin"
		}
	},
	"accessors": {
		"accessor_position_Wire_4391385a-cf83-4396-9e33-31e4e4930b27_0_i0": {
			"bufferView": "vec3BufferView",
			"byteOffset": 0,
			"byteStride": 12,
			"componentType": 5126,
			"count": 2798,
			"max": [ -0.0684963688, 2.34019113, 0.144083187 ],
			"min": [ -0.202603325, 2.28902888, -1.31867063 ],
			"type": "VEC3"
		},
		"accessor_normal_Wire_4391385a-cf83-4396-9e33-31e4e4930b27_0_i0": {
			"bufferView": "vec3BufferView",
			"byteOffset": 33576,
			"byteStride": 12,
			"componentType": 5126,
			"count": 2798,
			"type": "VEC3"
		},
		"accessor_color_Wire_4391385a-cf83-4396-9e33-31e4e4930b27_0_i0": {
			"bufferView": "vec4BufferView",
			"byteOffset": 0,
			"byteStride": 16,
			"componentType": 5126,
			"count": 2798,
			"type": "VEC4"
		},
		"accessor_tangent_Wire_4391385a-cf83-4396-9e33-31e4e4930b27_0_i0": {
			"bufferView": "vec4BufferView",
			"byteOffset": 44768,
			"byteStride": 16,
			"componentType": 5126,
			"count": 2798,
			"type": "VEC4"
		},
		"accessor_uv0_Wire_4391385a-cf83-4396-9e33-31e4e4930b27_0_i0": {
			"bufferView": "vec3BufferView",
			"byteOffset": 67152,
			"byteStride": 12,
			"componentType": 5126,
			"count": 2798,
			"type": "VEC3"
		},
		"accessor_indices_0_Wire_4391385a-cf83-4396-9e33-31e4e4930b27_0_i0": {
			"bufferView": "ushortBufferView",
			"byteOffset": 0,
			"byteStride": 0,
			"componentType": 5123,
			"count": 12960,
			"max": [ 2797 ],
			"min": [ 0 ],
			"type": "SCALAR"
		},
		"accessor_position_Marker_429ed64a-4e97-4466-84d3-145a861ef684_0_i0": {
			"bufferView": "vec3BufferView",
			"byteOffset": 100728,
			"byteStride": 12,
			"componentType": 5126,
			"count": 5324,
			"max": [ -0.0756580532, 2.34499764, 0.118493073 ],
			"min": [ -0.198109746, 2.28687334, -1.31595778 ],
			"type": "VEC3"
		},
		"accessor_normal_Marker_429ed64a-4e97-4466-84d3-145a861ef684_0_i0": {
			"bufferView": "vec3BufferView",
			"byteOffset": 164616,
			"byteStride": 12,
			"componentType": 5126,
			"count": 5324,
			"type": "VEC3"
		},
		"accessor_color_Marker_429ed64a-4e97-4466-84d3-145a861ef684_0_i0": {
			"bufferView": "vec4BufferView",
			"byteOffset": 89536,
			"byteStride": 16,
			"componentType": 5126,
			"count": 5324,
			"type": "VEC4"
		},
		"accessor_tangent_Marker_429ed64a-4e97-4466-84d3-145a861ef684_0_i0": {
			"bufferView": "vec4BufferView",
			"byteOffset": 174720,
			"byteStride": 16,
			"componentType": 5126,
			"count": 5324,
			"type": "VEC4"
		},
		"accessor_uv0_Marker_429ed64a-4e97-4466-84d3-145a861ef684_0_i0": {
			"bufferView": "vec2BufferView",
			"byteOffset": 0,
			"byteStride": 8,
			"componentType": 5126,
			"count": 5324,
			"type": "VEC2"
		},
		"accessor_indices_0_Marker_429ed64a-4e97-4466-84d3-145a861ef684_0_i0": {
			"bufferView": "ushortBufferView",
			"byteOffset": 25920,
			"byteStride": 0,
			"componentType": 5123,
			"count": 15684,
			"max": [ 5323 ],
			"min": [ 0 ],
			"type": "SCALAR"
		}
	},
	"bufferViews": {
		"ushortBufferView": {
			"buffer": "buffer_sketch",
			"byteLength": 57288,
			"byteOffset": 0,
			"target": 34963
		},
		"vec2BufferView": {
			"buffer": "buffer_sketch",
			"byteLength": 42592,
			"byteOffset": 57288,
			"target": 34962
		},
		"vec3BufferView": {
			"buffer": "buffer_sketch",
			"byteLength": 228504,
			"byteOffset": 99880,
			"target": 34962
		},
		"vec4BufferView": {
			"buffer": "buffer_sketch",
			"byteLength": 259904,
			"byteOffset": 328384,
			"target": 34962
		}
	},
	"meshes": {
		"mesh_Wire_4391385a-cf83-4396-9e33-31e4e4930b27_0_i0": {
			"name": "mesh_Wire_4391385a-cf83-4396-9e33-31e4e4930b27_0_i0",
			"primitives": [
				{
					"attributes": {
						"POSITION": "accessor_position_Wire_4391385a-cf83-4396-9e33-31e4e4930b27_0_i0",
						"NORMAL": "accessor_normal_Wire_4391385a-cf83-4396-9e33-31e4e4930b27_0_i0",
						"COLOR": "accessor_color_Wire_4391385a-cf83-4396-9e33-31e4e4930b27_0_i0",
						"TANGENT": "accessor_tangent_Wire_4391385a-cf83-4396-9e33-31e4e4930b27_0_i0",
						"TEXCOORD_0": "accessor_uv0_Wire_4391385a-cf83-4396-9e33-31e4e4930b27_0_i0"
					},
					"indices": "accessor_indices_0_Wire_4391385a-cf83-4396-9e33-31e4e4930b27_0_i0",
					"material": "material_4391385a-cf83-4396-9e33-31e4e4930b27",
					"mode": 4
				}
			]
		},
		"mesh_Marker_429ed64a-4e97-4466-84d3-145a861ef684_0_i0": {
			"name": "mesh_Marker_429ed64a-4e97-4466-84d3-145a861ef684_0_i0",
			"primitives": [
				{
					"attributes": {
						"POSITION": "accessor_position_Marker_429ed64a-4e97-4466-84d3-145a861ef684_0_i0",
						"NORMAL": "accessor_normal_Marker_429ed64a-4e97-4466-84d3-145a861ef684_0_i0",
						"COLOR": "accessor_color_Marker_429ed64a-4e97-4466-84d3-145a861ef684_0_i0",
						"TANGENT": "accessor_tangent_Marker_429ed64a-4e97-4466-84d3-145a861ef684_0_i0",
						"TEXCOORD_0": "accessor_uv0_Marker_429ed64a-4e97-4466-84d3-145a861ef684_0_i0"
					},
					"indices": "accessor_indices_0_Marker_429ed64a-4e97-4466-84d3-145a861ef684_0_i0",
					"material": "material_429ed64a-4e97-4466-84d3-145a861ef684",
					"mode": 4
				}
			]
		}
	},
	"shaders": {
		"vertex_4391385a-cf83-4396-9e33-31e4e4930b27": {
			"type": 35633,
			"uri": "https://www.tiltbrush.com/shaders/brushes/Wire-4391385a-cf83-4396-9e33-31e4e4930b27/Wire-4391385a-cf83-4396-9e33-31e4e4930b27-v10.0-vertex.glsl"
		},
		"fragment_4391385a-cf83-4396-9e33-31e4e4930b27": {
			"type": 35632,
			"uri": "https://www.tiltbrush.com/shaders/brushes/Wire-4391385a-cf83-4396-9e33-31e4e4930b27/Wire-4391385a-cf83-4396-9e33-31e4e4930b27-v10.0-fragment.glsl"
		},
		"vertex_429ed64a-4e97-4466-84d3-145a861ef684": {
			"type": 35633,
			"uri": "https://www.tiltbrush.com/shaders/brushes/Marker-429ed64a-4e97-4466-84d3-145a861ef684/Marker-429ed64a-4e97-4466-84d3-145a861ef684-v10.0-vertex.glsl"
		},
		"fragment_429ed64a-4e97-4466-84d3-145a861ef684": {
			"type": 35632,
			"uri": "https://www.tiltbrush.com/shaders/brushes/Marker-429ed64a-4e97-4466-84d3-145a861ef684/Marker-429ed64a-4e97-4466-84d3-145a861ef684-v10.0-fragment.glsl"
		}
	},
	"programs": {
		"program_4391385a-cf83-4396-9e33-31e4e4930b27": {
			"attributes": [
				"a_position",
				"a_normal",
				"a_color",
				"a_tangent",
				"a_texcoord0"
			],
			"vertexShader": "vertex_4391385a-cf83-4396-9e33-31e4e4930b27",
			"fragmentShader": "fragment_4391385a-cf83-4396-9e33-31e4e4930b27"
		},
		"program_429ed64a-4e97-4466-84d3-145a861ef684": {
			"attributes": [
				"a_position",
				"a_normal",
				"a_color",
				"a_tangent",
				"a_texcoord0"
			],
			"vertexShader": "vertex_429ed64a-4e97-4466-84d3-145a861ef684",
			"fragmentShader": "fragment_429ed64a-4e97-4466-84d3-145a861ef684"
		}
	},
	"techniques": {
		"technique_4391385a-cf83-4396-9e33-31e4e4930b27": {
			"program": "program_4391385a-cf83-4396-9e33-31e4e4930b27",
			"parameters": {
				"position": {
					"type": 35665,
					"semantic": "POSITION"
				},
				"normal": {
					"type": 35665,
					"semantic": "NORMAL"
				},
				"color": {
					"type": 35666,
					"semantic": "COLOR"
				},
				"tangent": {
					"type": 35666,
					"semantic": "TANGENT"
				},
				"texcoord0": {
					"type": 35665,
					"semantic": "TEXCOORD_0"
				},
				"modelViewMatrix": {
					"type": 35676,
					"semantic": "MODELVIEW"
				},
				"projectionMatrix": {
					"type": 35676,
					"semantic": "PROJECTION"
				},
				"normalMatrix": {
					"type": 35675,
					"semantic": "MODELVIEWINVERSETRANSPOSE"
				},
				"SceneLight_0_matrix": {
					"type": 35676,
					"semantic": "MODELVIEW",
					"node": "node_SceneLight_0_i1"
				},
				"SceneLight_0_color": {
					"type": 35666,
					"node": "node_SceneLight_0_i1"
				},
				"SceneLight_1_matrix": {
					"type": 35676,
					"semantic": "MODELVIEW",
					"node": "node_SceneLight_1_i2"
				},
				"SceneLight_1_color": {
					"type": 35666,
					"node": "node_SceneLight_1_i2"
				},
				"ambient_light_color": {
					"type": 35666
				},
				"Cutoff": {
					"type": 5126
				}
			},
			"attributes": {
				"a_position": "position",
				"a_normal": "normal",
				"a_color": "color",
				"a_tangent": "tangent",
				"a_texcoord0": "texcoord0"
			},
			"uniforms": {
				"u_modelViewMatrix": "modelViewMatrix",
				"u_projectionMatrix": "projectionMatrix",
				"u_normalMatrix": "normalMatrix",
				"u_SceneLight_0_matrix": "SceneLight_0_matrix",
				"u_SceneLight_0_color": "SceneLight_0_color",
				"u_SceneLight_1_matrix": "SceneLight_1_matrix",
				"u_SceneLight_1_color": "SceneLight_1_color",
				"u_ambient_light_color": "ambient_light_color",
				"u_Cutoff": "Cutoff"
			},
			"states": {
				"enable": [
					2929
				],
				"functions": {
					"depthMask": [true]
				}
			}
		},
		"technique_429ed64a-4e97-4466-84d3-145a861ef684": {
			"program": "program_429ed64a-4e97-4466-84d3-145a861ef684",
			"parameters": {
				"position": {
					"type": 35665,
					"semantic": "POSITION"
				},
				"normal": {
					"type": 35665,
					"semantic": "NORMAL"
				},
				"color": {
					"type": 35666,
					"semantic": "COLOR"
				},
				"tangent": {
					"type": 35666,
					"semantic": "TANGENT"
				},
				"texcoord0": {
					"type": 35664,
					"semantic": "TEXCOORD_0"
				},
				"modelViewMatrix": {
					"type": 35676,
					"semantic": "MODELVIEW"
				},
				"projectionMatrix": {
					"type": 35676,
					"semantic": "PROJECTION"
				},
				"normalMatrix": {
					"type": 35675,
					"semantic": "MODELVIEWINVERSETRANSPOSE"
				},
				"SceneLight_0_matrix": {
					"type": 35676,
					"semantic": "MODELVIEW",
					"node": "node_SceneLight_0_i1"
				},
				"SceneLight_0_color": {
					"type": 35666,
					"node": "node_SceneLight_0_i1"
				},
				"SceneLight_1_matrix": {
					"type": 35676,
					"semantic": "MODELVIEW",
					"node": "node_SceneLight_1_i2"
				},
				"SceneLight_1_color": {
					"type": 35666,
					"node": "node_SceneLight_1_i2"
				},
				"ambient_light_color": {
					"type": 35666
				},
				"Cutoff": {
					"type": 5126
				},
				"MainTex_TexelSize": {
					"type": 35666
				},
				"MainTex": {
					"type": 35678
				}
			},
			"attributes": {
				"a_position": "position",
				"a_normal": "normal",
				"a_color": "color",
				"a_tangent": "tangent",
				"a_texcoord0": "texcoord0"
			},
			"uniforms": {
				"u_modelViewMatrix": "modelViewMatrix",
				"u_projectionMatrix": "projectionMatrix",
				"u_normalMatrix": "normalMatrix",
				"u_SceneLight_0_matrix": "SceneLight_0_matrix",
				"u_SceneLight_0_color": "SceneLight_0_color",
				"u_SceneLight_1_matrix": "SceneLight_1_matrix",
				"u_SceneLight_1_color": "SceneLight_1_color",
				"u_ambient_light_color": "ambient_light_color",
				"u_Cutoff": "Cutoff",
				"u_MainTex_TexelSize": "MainTex_TexelSize",
				"u_MainTex": "MainTex"
			},
			"states": {
				"enable": [
					2929
				],
				"functions": {
					"depthMask": [true]
				}
			}
		}
	},
	"samplers": {
		"sampler_LINEAR_LINEAR_MIPMAP_LINEAR_REPEAT": {
			"magFilter": 9729,
			"minFilter": 9987,
			"wrapS": 10497,
			"wrapT": 10497
		}
	},
	"textures": {
		"texture_429ed64a-4e97-4466-84d3-145a861ef684_MainTex": {
			"format": 6408,
			"internalFormat": 6408,
			"sampler": "sampler_LINEAR_LINEAR_MIPMAP_LINEAR_REPEAT",
			"source": "image_429ed64a-4e97-4466-84d3-145a861ef684_MainTex",
			"target": 3553,
			"type": 5121
		}
	},
	"images": {
		"image_429ed64a-4e97-4466-84d3-145a861ef684_MainTex": {
			"uri": "https://www.tiltbrush.com/shaders/brushes/Marker-429ed64a-4e97-4466-84d3-145a861ef684/Marker-429ed64a-4e97-4466-84d3-145a861ef684-v10.0-MainTex.png"
		}
	},
	"materials": {
		"material_4391385a-cf83-4396-9e33-31e4e4930b27": {
			"technique": "technique_4391385a-cf83-4396-9e33-31e4e4930b27",
			"values": {
				"SceneLight_0_color": [0.7780392, 0.8156863, 0.9913726, 1],
				"SceneLight_1_color": [0.4282353, 0.4211765, 0.3458824, 1],
				"ambient_light_color": [0.3921569, 0.3921569, 0.3921569, 1],
				"Cutoff": 0.067
			},
			"name": "material_4391385a-cf83-4396-9e33-31e4e4930b27"
		},
		"material_429ed64a-4e97-4466-84d3-145a861ef684": {
			"technique": "technique_429ed64a-4e97-4466-84d3-145a861ef684",
			"values": {
				"SceneLight_0_color": [0.7780392, 0.8156863, 0.9913726, 1],
				"SceneLight_1_color": [0.4282353, 0.4211765, 0.3458824, 1],
				"ambient_light_color": [0.3921569, 0.3921569, 0.3921569, 1],
				"Cutoff": 0.067,
				"MainTex_TexelSize": [0.015625, 0.00390625, 64, 256],
				"MainTex": "texture_429ed64a-4e97-4466-84d3-145a861ef684_MainTex"
			},
			"name": "material_429ed64a-4e97-4466-84d3-145a861ef684"
		}
	},
	"nodes": {
		"node_Wire_4391385a-cf83-4396-9e33-31e4e4930b27_0_i0": {
			"name": "node_Wire_4391385a-cf83-4396-9e33-31e4e4930b27_0_i0",
			"meshes": [
				"mesh_Wire_4391385a-cf83-4396-9e33-31e4e4930b27_0_i0"
			],
			"matrix": [1, 0, 0, 0, 0, 1, 0, 0, 0, 0, 1, 0, 0, 0, 0, 1]
		},
		"node_SceneLight_0_i1": {
			"name": "node_SceneLight_0_i1",
			"light": "SceneLight_0",
			"matrix": [0.898794, 0.2191856, -0.3796406, 0, -0.4383712, 0.449397, -0.7783785, 0, -1.490116E-08, 0.8660254, 0.4999999, 0, -1.838015, 1.620968, -2.553598, 1]
		},
		"node_SceneLight_1_i2": {
			"name": "node_SceneLight_1_i2",
			"light": "SceneLight_1",
			"matrix": [0.7660444, -0.4924039, -0.4131759, 0, -0.6427876, -0.5868242, -0.4924039, 0, 8.940697E-08, 0.6427876, -0.7660446, 0, -1.838015, 1.59488, -2.701551, 1]
		},
		"node_Marker_429ed64a-4e97-4466-84d3-145a861ef684_0_i0": {
			"name": "node_Marker_429ed64a-4e97-4466-84d3-145a861ef684_0_i0",
			"meshes": [
				"mesh_Marker_429ed64a-4e97-4466-84d3-145a861ef684_0_i0"
			],
			"matrix": [1, 0, 0, 0, 0, 1, 0, 0, 0, 0, 1, 0, 0, 0, 0, 1]
		}
	},
	"scene": "defaultScene",
	"scenes": {
		"defaultScene": {
			"nodes": [
				"node_Wire_4391385a-cf83-4396-9e33-31e4e4930b27_0_i0",
				"node_SceneLight_0_i1",
				"node_SceneLight_1_i2",
				"node_Marker_429ed64a-4e97-4466-84d3-145a861ef684_0_i0"
			],
			"extras": {
				"TB_EnvironmentGuid": "ab080599-e465-4a6d-8587-43bf495af68b",
				"TB_Environment": "Standard",
				"TB_UseGradient": "true",
				"TB_SkyColorA": "0.2745098, 0.2745098, 0.3176471",
				"TB_SkyColorB": "0.03529412, 0.03529412, 0.08627451",
				"TB_SkyGradientDirection": "0, 1, 0",
				"TB_FogColor": "0.1647059, 0.1647059, 0.2078431",
				"TB_FogDensity": "0.0025",
				"TB_SkyColorHorizon": "0.2745098, 0.2745098, 0.3176471",
				"TB_SkyColorZenith": "0.03529412, 0.03529412, 0.08627451"
			}
		}
	}
}