{
	"asset": {
		"generator": "Tilt Brush 23.3.d548293cc",
		"version": "1.1",
		"copyright": "Unknown."
	},
	"buffers": {
		"buffer_sketch": {
			"byteLength": 541720,
			"type": "arraybuffer",
			"uri": "sketch.bin"
		}
	},
	"accessors": {
		"accessor_position_Petal_e0abbc80-0f80-e854-4970-8924a0863dcc_0_i0": {
			"bufferView": "vec3BufferView",
			"byteOffset": 0,
			"byteStride": 12,
			"componentType": 5126,
			"count": 590,
			"max": [ 0.349192709, 1.55253077, 0.167082414 ],
			"min": [ 0.0317473523, 1.24275386, -0.16339086 ],
			"type": "VEC3"
		},
		"accessor_normal_Petal_e0abbc80-0f80-e854-4970-8924a0863dcc_0_i0": {
			"bufferView": "vec3BufferView",
			"byteOffset": 7080,
			"byteStride": 12,
			"componentType": 5126,
			"count": 590,
			"type": "VEC3"
		},
		"accessor_color_Petal_e0abbc80-0f80-e854-4970-8924a0863dcc_0_i0": {
			"bufferView": "vec4BufferView",
			"byteOffset": 0,
			"byteStride": 16,
			"componentType": 5126,
			"count": 590,
			"type": "VEC4"
		},
		"accessor_tangent_Petal_e0abbc80-0f80-e854-4970-8924a0863dcc_0_i0": {
			"bufferView": "vec4BufferView",
			"byteOffset": 9440,
			"byteStride": 16,
			"componentType": 5126,
			"count": 590,
			"type": "VEC4"
		},
		"accessor_uv0_Petal_e0abbc80-0f80-e854-4970-8924a0863dcc_0_i0": {
			"bufferView": "vec3BufferView",
			"byteOffset": 14160,
			"byteStride": 12,
			"componentType": 5126,
			"count": 590,
			"type": "VEC3"
		},
		"accessor_indices_0_Petal_e0abbc80-0f80-e854-4970-8924a0863dcc_0_i0": {
			"bufferView": "ushortBufferView",
			"byteOffset": 0,
			"byteStride": 0,
			"componentType": 5123,
			"count": 1560,
			"max": [ 589 ],
			"min": [ 0 ],
			"type": "SCALAR"
		},
		"accessor_position_Embers_02ffb866-7fb2-4d15-b761-1012cefb1360_0_i0": {
			"bufferView": "vec3BufferView",
			"byteOffset": 21240,
			"byteStride": 12,
			"componentType": 5126,
			"count": 208,
			"max": [ 0.184008822, 1.29699838, 0.0747097507 ],
			"min": [ 0.110691071, 1.274279, -0.0417258441 ],
			"type": "VEC3"
		},
		"accessor_normal_Embers_02ffb866-7fb2-4d15-b761-1012cefb1360_0_i0": {
			"bufferView": "vec3BufferView",
			"byteOffset": 23736,
			"byteStride": 12,
			"componentType": 5126,
			"count": 208,
			"type": "VEC3"
		},
		"accessor_color_Embers_02ffb866-7fb2-4d15-b761-1012cefb1360_0_i0": {
			"bufferView": "vec4BufferView",
			"byteOffset": 18880,
			"byteStride": 16,
			"componentType": 5126,
			"count": 208,
			"type": "VEC4"
		},
		"accessor_uv0_Embers_02ffb866-7fb2-4d15-b761-1012cefb1360_0_i0": {
			"bufferView": "vec4BufferView",
			"byteOffset": 22208,
			"byteStride": 16,
			"componentType": 5126,
			"count": 208,
			"type": "VEC4"
		},
		"accessor_uv1_Embers_02ffb866-7fb2-4d15-b761-1012cefb1360_0_i0": {
			"bufferView": "vec4BufferView",
			"byteOffset": 25536,
			"byteStride": 16,
			"componentType": 5126,
			"count": 208,
			"type": "VEC4"
		},
		"accessor_indices_0_Embers_02ffb866-7fb2-4d15-b761-1012cefb1360_0_i0": {
			"bufferView": "ushortBufferView",
			"byteOffset": 3120,
			"byteStride": 0,
			"componentType": 5123,
			"count": 312,
			"max": [ 207 ],
			"min": [ 0 ],
			"type": "SCALAR"
		},
		"accessor_position_Lofted_d381e0f5-3def-4a0d-8853-31e9200bcbda_0_i0": {
			"bufferView": "vec3BufferView",
			"byteOffset": 26232,
			"byteStride": 12,
			"componentType": 5126,
			"count": 6528,
			"max": [ 0.421576232, 1.6733669, 0.240103588 ],
			"min": [ -0.059274137, 0.0492489003, -0.19660151 ],
			"type": "VEC3"
		},
		"accessor_normal_Lofted_d381e0f5-3def-4a0d-8853-31e9200bcbda_0_i0": {
			"bufferView": "vec3BufferView",
			"byteOffset": 104568,
			"byteStride": 12,
			"componentType": 5126,
			"count": 6528,
			"type": "VEC3"
		},
		"accessor_color_Lofted_d381e0f5-3def-4a0d-8853-31e9200bcbda_0_i0": {
			"bufferView": "vec4BufferView",
			"byteOffset": 28864,
			"byteStride": 16,
			"componentType": 5126,
			"count": 6528,
			"type": "VEC4"
		},
		"accessor_tangent_Lofted_d381e0f5-3def-4a0d-8853-31e9200bcbda_0_i0": {
			"bufferView": "vec4BufferView",
			"byteOffset": 133312,
			"byteStride": 16,
			"componentType": 5126,
			"count": 6528,
			"type": "VEC4"
		},
		"accessor_uv0_Lofted_d381e0f5-3def-4a0d-8853-31e9200bcbda_0_i0": {
			"bufferView": "vec3BufferView",
			"byteOffset": 182904,
			"byteStride": 12,
			"componentType": 5126,
			"count": 6528,
			"type": "VEC3"
		},
		"accessor_indices_0_Lofted_d381e0f5-3def-4a0d-8853-31e9200bcbda_0_i0": {
			"bufferView": "ushortBufferView",
			"byteOffset": 3744,
			"byteStride": 0,
			"componentType": 5123,
			"count": 19488,
			"max": [ 6527 ],
			"min": [ 0 ],
			"type": "SCALAR"
		}
	},
	"bufferViews": {
		"ushortBufferView": {
			"buffer": "buffer_sketch",
			"byteLength": 42720,
			"byteOffset": 0,
			"target": 34963
		},
		"vec3BufferView": {
			"buffer": "buffer_sketch",
			"byteLength": 261240,
			"byteOffset": 42720,
			"target": 34962
		},
		"vec4BufferView": {
			"buffer": "buffer_sketch",
			"byteLength": 237760,
			"byteOffset": 303960,
			"target": 34962
		}
	},
	"meshes": {
		"mesh_Petal_e0abbc80-0f80-e854-4970-8924a0863dcc_0_i0": {
			"name": "mesh_Petal_e0abbc80-0f80-e854-4970-8924a0863dcc_0_i0",
			"primitives": [
				{
					"attributes": {
						"POSITION": "accessor_position_Petal_e0abbc80-0f80-e854-4970-8924a0863dcc_0_i0",
						"NORMAL": "accessor_normal_Petal_e0abbc80-0f80-e854-4970-8924a0863dcc_0_i0",
						"COLOR": "accessor_color_Petal_e0abbc80-0f80-e854-4970-8924a0863dcc_0_i0",
						"TANGENT": "accessor_tangent_Petal_e0abbc80-0f80-e854-4970-8924a0863dcc_0_i0",
						"TEXCOORD_0": "accessor_uv0_Petal_e0abbc80-0f80-e854-4970-8924a0863dcc_0_i0"
					},
					"indices": "accessor_indices_0_Petal_e0abbc80-0f80-e854-4970-8924a0863dcc_0_i0",
					"material": "material_e0abbc80-0f80-e854-4970-8924a0863dcc",
					"mode": 4
				}
			]
		},
		"mesh_Embers_02ffb866-7fb2-4d15-b761-1012cefb1360_0_i0": {
			"name": "mesh_Embers_02ffb866-7fb2-4d15-b761-1012cefb1360_0_i0",
			"primitives": [
				{
					"attributes": {
						"POSITION": "accessor_position_Embers_02ffb866-7fb2-4d15-b761-1012cefb1360_0_i0",
						"NORMAL": "accessor_normal_Embers_02ffb866-7fb2-4d15-b761-1012cefb1360_0_i0",
						"COLOR": "accessor_color_Embers_02ffb866-7fb2-4d15-b761-1012cefb1360_0_i0",
						"TEXCOORD_0": "accessor_uv0_Embers_02ffb866-7fb2-4d15-b761-1012cefb1360_0_i0",
						"TEXCOORD_1": "accessor_uv1_Embers_02ffb866-7fb2-4d15-b761-1012cefb1360_0_i0"
					},
					"indices": "accessor_indices_0_Embers_02ffb866-7fb2-4d15-b761-1012cefb1360_0_i0",
					"material": "material_02ffb866-7fb2-4d15-b761-1012cefb1360",
					"mode": 4
				}
			]
		},
		"mesh_Lofted_d381e0f5-3def-4a0d-8853-31e9200bcbda_0_i0": {
			"name": "mesh_Lofted_d381e0f5-3def-4a0d-8853-31e9200bcbda_0_i0",
			"primitives": [
				{
					"attributes": {
						"POSITION": "accessor_position_Lofted_d381e0f5-3def-4a0d-8853-31e9200bcbda_0_i0",
						"NORMAL": "accessor_normal_Lofted_d381e0f5-3def-4a0d-8853-31e9200bcbda_0_i0",
						"COLOR": "accessor_color_Lofted_d381e0f5-3def-4a0d-8853-31e9200bcbda_0_i0",
						"TANGENT": "accessor_tangent_Lofted_d381e0f5-3def-4a0d-8853-31e9200bcbda_0_i0",
						"TEXCOORD_0": "accessor_uv0_Lofted_d381e0f5-3def-4a0d-8853-31e9200bcbda_0_i0"
					},
					"indices": "accessor_indices_0_Lofted_d381e0f5-3def-4a0d-8853-31e9200bcbda_0_i0",
					"material": "material_d381e0f5-3def-4a0d-8853-31e9200bcbda",
					"mode": 4
				}
			]
		}
	},
	"shaders": {
		"vertex_e0abbc80-0f80-e854-4970-8924a0863dcc": {
			"type": 35633,
			"uri": "https://www.tiltbrush.com/shaders/brushes/Petal-e0abbc80-0f80-e854-4970-8924a0863dcc/Petal-e0abbc80-0f80-e854-4970-8924a0863dcc-v10.0-vertex.glsl"
		},
		"fragment_e0abbc80-0f80-e854-4970-8924a0863dcc": {
			"type": 35632,
			"uri": "https://www.tiltbrush.com/shaders/brushes/Petal-e0abbc80-0f80-e854-4970-8924a0863dcc/Petal-e0abbc80-0f80-e854-4970-8924a0863dcc-v10.0-fragment.glsl"
		},
		"vertex_02ffb866-7fb2-4d15-b761-1012cefb1360": {
			"type": 35633,
			"uri": "https://www.tiltbrush.com/shaders/brushes/Embers-02ffb866-7fb2-4d15-b761-1012cefb1360/Embers-02ffb866-7fb2-4d15-b761-1012cefb1360-v10.0-vertex.glsl"
		},
		"fragment_02ffb866-7fb2-4d15-b761-1012cefb1360": {
			"type": 35632,
			"uri": "https://www.tiltbrush.com/shaders/brushes/Embers-02ffb866-7fb2-4d15-b761-1012cefb1360/Embers-02ffb866-7fb2-4d15-b761-1012cefb1360-v10.0-fragment.glsl"
		},
		"vertex_d381e0f5-3def-4a0d-8853-31e9200bcbda": {
			"type": 35633,
			"uri": "https://www.tiltbrush.com/shaders/brushes/Lofted-d381e0f5-3def-4a0d-8853-31e9200bcbda/Lofted-d381e0f5-3def-4a0d-8853-31e9200bcbda-v10.0-vertex.glsl"
		},
		"fragment_d381e0f5-3def-4a0d-8853-31e9200bcbda": {
			"type": 35632,
			"uri": "https://www.tiltbrush.com/shaders/brushes/Lofted-d381e0f5-3def-4a0d-8853-31e9200bcbda/Lofted-d381e0f5-3def-4a0d-8853-31e9200bcbda-v10.0-fragment.glsl"
		}
	},
	"programs": {
		"program_e0abbc80-0f80-e854-4970-8924a0863dcc": {
			"attributes": [
				"a_position",
				"a_normal",
				"a_color",
				"a_tangent",
				"a_texcoord0"
			],
			"vertexShader": "vertex_e0abbc80-0f80-e854-4970-8924a0863dcc",
			"fragmentShader": "fragment_e0abbc80-0f80-e854-4970-8924a0863dcc"
		},
		"program_02ffb866-7fb2-4d15-b761-1012cefb1360": {
			"attributes": [
				"a_position",
				"a_normal",
				"a_color",
				"a_vertexId",
				"a_texcoord0",
				"a_texcoord1"
			],
			"vertexShader": "vertex_02ffb866-7fb2-4d15-b761-1012cefb1360",
			"fragmentShader": "fragment_02ffb866-7fb2-4d15-b761-1012cefb1360"
		},
		"program_d381e0f5-3def-4a0d-8853-31e9200bcbda": {
			"attributes": [
				"a_position",
				"a_normal",
				"a_color",
				"a_tangent",
				"a_texcoord0"
			],
			"vertexShader": "vertex_d381e0f5-3def-4a0d-8853-31e9200bcbda",
			"fragmentShader": "fragment_d381e0f5-3def-4a0d-8853-31e9200bcbda"
		}
	},
	"techniques": {
		"technique_e0abbc80-0f80-e854-4970-8924a0863dcc": {
			"program": "program_e0abbc80-0f80-e854-4970-8924a0863dcc",
			"parameters": {
				"position": {
					"type": 35665,
					"semantic": "POSITION"
				},
				"normal": {
					"type": 35665,
					"semantic": "NORMAL"
				},
				"color": {
					"type": 35666,
					"semantic": "COLOR"
				},
				"tangent": {
					"type": 35666,
					"semantic": "TANGENT"
				},
				"texcoord0": {
					"type": 35665,
					"semantic": "TEXCOORD_0"
				},
				"modelViewMatrix": {
					"type": 35676,
					"semantic": "MODELVIEW"
				},
				"projectionMatrix": {
					"type": 35676,
					"semantic": "PROJECTION"
				},
				"normalMatrix": {
					"type": 35675,
					"semantic": "MODELVIEWINVERSETRANSPOSE"
				},
				"SceneLight_0_matrix": {
					"type": 35676,
					"semantic": "MODELVIEW",
					"node": "node_SceneLight_0_i1"
				},
				"SceneLight_0_color": {
					"type": 35666,
					"node": "node_SceneLight_0_i1"
				},
				"SceneLight_1_matrix": {
					"type": 35676,
					"semantic": "MODELVIEW",
					"node": "node_SceneLight_1_i2"
				},
				"SceneLight_1_color": {
					"type": 35666,
					"node": "node_SceneLight_1_i2"
				},
				"ambient_light_color": {
					"type": 35666
				},
				"Shininess": {
					"type": 5126
				},
				"SpecColor": {
					"type": 35666
				}
			},
			"attributes": {
				"a_position": "position",
				"a_normal": "normal",
				"a_color": "color",
				"a_tangent": "tangent",
				"a_texcoord0": "texcoord0"
			},
			"uniforms": {
				"u_modelViewMatrix": "modelViewMatrix",
				"u_projectionMatrix": "projectionMatrix",
				"u_normalMatrix": "normalMatrix",
				"u_SceneLight_0_matrix": "SceneLight_0_matrix",
				"u_SceneLight_0_color": "SceneLight_0_color",
				"u_SceneLight_1_matrix": "SceneLight_1_matrix",
				"u_SceneLight_1_color": "SceneLight_1_color",
				"u_ambient_light_color": "ambient_light_color",
				"u_Shininess": "Shininess",
				"u_SpecColor": "SpecColor"
			},
			"states": {
				"enable": [
					2929
				],
				"functions": {
					"depthMask": [true]
				}
			}
		},
		"technique_02ffb866-7fb2-4d15-b761-1012cefb1360": {
			"program": "program_02ffb866-7fb2-4d15-b761-1012cefb1360",
			"parameters": {
				"position": {
					"type": 35665,
					"semantic": "POSITION"
				},
				"normal": {
					"type": 35665,
					"semantic": "NORMAL"
				},
				"color": {
					"type": 35666,
					"semantic": "COLOR"
				},
				"vertexId": {
					"type": 5126
				},
				"texcoord0": {
					"type": 35666,
					"semantic": "TEXCOORD_0"
				},
				"texcoord1": {
					"type": 35666,
					"semantic": "TEXCOORD_1"
				},
				"modelViewMatrix": {
					"type": 35676,
					"semantic": "MODELVIEW"
				},
				"projectionMatrix": {
					"type": 35676,
					"semantic": "PROJECTION"
				},
				"normalMatrix": {
					"type": 35675,
					"semantic": "MODELVIEWINVERSETRANSPOSE"
				},
				"SceneLight_0_matrix": {
					"type": 35676,
					"semantic": "MODELVIEW",
					"node": "node_SceneLight_0_i1"
				},
				"SceneLight_0_color": {
					"type": 35666,
					"node": "node_SceneLight_0_i1"
				},
				"SceneLight_1_matrix": {
					"type": 35676,
					"semantic": "MODELVIEW",
					"node": "node_SceneLight_1_i2"
				},
				"SceneLight_1_color": {
					"type": 35666,
					"node": "node_SceneLight_1_i2"
				},
				"ambient_light_color": {
					"type": 35666
				},
				"ScrollRate": {
					"type": 5126
				},
				"ScrollJitterIntensity": {
					"type": 5126
				},
				"ScrollJitterFrequency": {
					"type": 5126
				},
				"SpreadRate": {
					"type": 5126
				},
				"TintColor": {
					"type": 35666
				},
				"ScrollDistance": {
					"type": 35666
				},
				"MainTex_TexelSize": {
					"type": 35666
				},
				"MainTex": {
					"type": 35678
				}
			},
			"attributes": {
				"a_position": "position",
				"a_normal": "normal",
				"a_color": "color",
				"a_vertexId": "vertexId",
				"a_texcoord0": "texcoord0",
				"a_texcoord1": "texcoord1"
			},
			"uniforms": {
				"u_modelViewMatrix": "modelViewMatrix",
				"u_projectionMatrix": "projectionMatrix",
				"u_normalMatrix": "normalMatrix",
				"u_SceneLight_0_matrix": "SceneLight_0_matrix",
				"u_SceneLight_0_color": "SceneLight_0_color",
				"u_SceneLight_1_matrix": "SceneLight_1_matrix",
				"u_SceneLight_1_color": "SceneLight_1_color",
				"u_ambient_light_color": "ambient_light_color",
				"u_ScrollRate": "ScrollRate",
				"u_ScrollJitterIntensity": "ScrollJitterIntensity",
				"u_ScrollJitterFrequency": "ScrollJitterFrequency",
				"u_SpreadRate": "SpreadRate",
				"u_TintColor": "TintColor",
				"u_ScrollDistance": "ScrollDistance",
				"u_MainTex_TexelSize": "MainTex_TexelSize",
				"u_MainTex": "MainTex"
			},
			"states": {
				"enable": [
					2929,
					3042
				],
				"functions": {
					"blendFuncSeparate": [1, 1, 1, 1],
					"depthMask": [false]
				}
			}
		},
		"technique_d381e0f5-3def-4a0d-8853-31e9200bcbda": {
			"program": "program_d381e0f5-3def-4a0d-8853-31e9200bcbda",
			"parameters": {
				"position": {
					"type": 35665,
					"semantic": "POSITION"
				},
				"normal": {
					"type": 35665,
					"semantic": "NORMAL"
				},
				"color": {
					"type": 35666,
					"semantic": "COLOR"
				},
				"tangent": {
					"type": 35666,
					"semantic": "TANGENT"
				},
				"texcoord0": {
					"type": 35665,
					"semantic": "TEXCOORD_0"
				},
				"modelViewMatrix": {
					"type": 35676,
					"semantic": "MODELVIEW"
				},
				"projectionMatrix": {
					"type": 35676,
					"semantic": "PROJECTION"
				},
				"normalMatrix": {
					"type": 35675,
					"semantic": "MODELVIEWINVERSETRANSPOSE"
				},
				"SceneLight_0_matrix": {
					"type": 35676,
					"semantic": "MODELVIEW",
					"node": "node_SceneLight_0_i1"
				},
				"SceneLight_0_color": {
					"type": 35666,
					"node": "node_SceneLight_0_i1"
				},
				"SceneLight_1_matrix": {
					"type": 35676,
					"semantic": "MODELVIEW",
					"node": "node_SceneLight_1_i2"
				},
				"SceneLight_1_color": {
					"type": 35666,
					"node": "node_SceneLight_1_i2"
				},
				"ambient_light_color": {
					"type": 35666
				},
				"Color": {
					"type": 35666
				}
			},
			"attributes": {
				"a_position": "position",
				"a_normal": "normal",
				"a_color": "color",
				"a_tangent": "tangent",
				"a_texcoord0": "texcoord0"
			},
			"uniforms": {
				"u_modelViewMatrix": "modelViewMatrix",
				"u_projectionMatrix": "projectionMatrix",
				"u_normalMatrix": "normalMatrix",
				"u_SceneLight_0_matrix": "SceneLight_0_matrix",
				"u_SceneLight_0_color": "SceneLight_0_color",
				"u_SceneLight_1_matrix": "SceneLight_1_matrix",
				"u_SceneLight_1_color": "SceneLight_1_color",
				"u_ambient_light_color": "ambient_light_color",
				"u_Color": "Color"
			},
			"states": {
				"enable": [
					2929,
					2884
				],
				"functions": {
					"depthMask": [true]
				}
			}
		}
	},
	"samplers": {
		"sampler_LINEAR_LINEAR_MIPMAP_LINEAR_REPEAT": {
			"magFilter": 9729,
			"minFilter": 9987,
			"wrapS": 10497,
			"wrapT": 10497
		}
	},
	"textures": {
		"texture_02ffb866-7fb2-4d15-b761-1012cefb1360_MainTex": {
			"format": 6408,
			"internalFormat": 6408,
			"sampler": "sampler_LINEAR_LINEAR_MIPMAP_LINEAR_REPEAT",
			"source": "image_02ffb866-7fb2-4d15-b761-1012cefb1360_MainTex",
			"target": 3553,
			"type": 5121
		}
	},
	"images": {
		"image_02ffb866-7fb2-4d15-b761-1012cefb1360_MainTex": {
			"uri": "https://www.tiltbrush.com/shaders/brushes/Embers-02ffb866-7fb2-4d15-b761-1012cefb1360/Embers-02ffb866-7fb2-4d15-b761-1012cefb1360-v10.0-MainTex.png"
		}
	},
	"materials": {
		"material_e0abbc80-0f80-e854-4970-8924a0863dcc": {
			"technique": "technique_e0abbc80-0f80-e854-4970-8924a0863dcc",
			"values": {
				"SceneLight_0_color": [0.7780392, 0.8156863, 0.9913726, 1],
				"SceneLight_1_color": [0.4282353, 0.4211765, 0.3458824, 1],
				"ambient_light_color": [0.3921569, 0.3921569, 0.3921569, 1],
				"Shininess": 0.01,
				"SpecColor": [0, 0, 0, 0]
			},
			"name": "material_e0abbc80-0f80-e854-4970-8924a0863dcc"
		},
		"material_02ffb866-7fb2-4d15-b761-1012cefb1360": {
			"technique": "technique_02ffb866-7fb2-4d15-b761-1012cefb1360",
			"values": {
				"SceneLight_0_color": [0.7780392, 0.8156863, 0.9913726, 1],
				"SceneLight_1_color": [0.4282353, 0.4211765, 0.3458824, 1],
				"ambient_light_color": [0.3921569, 0.3921569, 0.3921569, 1],
				"ScrollRate": 0.6,
				"ScrollJitterIntensity": 0.03,
				"ScrollJitterFrequency": 5,
				"SpreadRate": 1.539,
				"TintColor": [1, 1, 1, 1],
				"ScrollDistance": [0.2, 0.6, 0, 0],
				"MainTex_TexelSize": [0.0078125, 0.0078125, 128, 128],
				"MainTex": "texture_02ffb866-7fb2-4d15-b761-1012cefb1360_MainTex"
			},
			"name": "material_02ffb866-7fb2-4d15-b761-1012cefb1360"
		},
		"material_d381e0f5-3def-4a0d-8853-31e9200bcbda": {
			"technique": "technique_d381e0f5-3def-4a0d-8853-31e9200bcbda",
			"values": {
				"SceneLight_0_color": [0.7780392, 0.8156863, 0.9913726, 1],
				"SceneLight_1_color": [0.4282353, 0.4211765, 0.3458824, 1],
				"ambient_light_color": [0.3921569, 0.3921569, 0.3921569, 1],
				"Color": [1, 1, 1, 1]
			},
			"name": "material_d381e0f5-3def-4a0d-8853-31e9200bcbda"
		}
	},
	"nodes": {
		"node_Petal_e0abbc80-0f80-e854-4970-8924a0863dcc_0_i0": {
			"name": "node_Petal_e0abbc80-0f80-e854-4970-8924a0863dcc_0_i0",
			"meshes": [
				"mesh_Petal_e0abbc80-0f80-e854-4970-8924a0863dcc_0_i0"
			],
			"matrix": [1, 0, 0, 0, 0, 1, 0, 0, 0, 0, 1, 0, 0, 0, 0, 1]
		},
		"node_SceneLight_0_i1": {
			"name": "node_SceneLight_0_i1",
			"light": "SceneLight_0",
			"matrix": [0.898794, 0.2191856, -0.3796406, 0, -0.4383712, 0.449397, -0.7783785, 0, -1.490116E-08, 0.8660254, 0.4999999, 0, 1.076456, 0.1796388, 1.866139, 1]
		},
		"node_SceneLight_1_i2": {
			"name": "node_SceneLight_1_i2",
			"light": "SceneLight_1",
			"matrix": [0.7660444, -0.4924039, -0.4131759, 0, -0.6427876, -0.5868242, -0.4924039, 0, 8.940697E-08, 0.6427876, -0.7660446, 0, 1.105703, 0.1368554, 1.831575, 1]
		},
		"node_Embers_02ffb866-7fb2-4d15-b761-1012cefb1360_0_i0": {
			"name": "node_Embers_02ffb866-7fb2-4d15-b761-1012cefb1360_0_i0",
			"meshes": [
				"mesh_Embers_02ffb866-7fb2-4d15-b761-1012cefb1360_0_i0"
			],
			"matrix": [1, 0, 0, 0, 0, 1, 0, 0, 0, 0, 1, 0, 0, 0, 0, 1]
		},
		"node_Lofted_d381e0f5-3def-4a0d-8853-31e9200bcbda_0_i0": {
			"name": "node_Lofted_d381e0f5-3def-4a0d-8853-31e9200bcbda_0_i0",
			"meshes": [
				"mesh_Lofted_d381e0f5-3def-4a0d-8853-31e9200bcbda_0_i0"
			],
			"matrix": [1, 0, 0, 0, 0, 1, 0, 0, 0, 0, 1, 0, 0, 0, 0, 1]
		}
	},
	"scene": "defaultScene",
	"scenes": {
		"defaultScene": {
			"nodes": [
				"node_Petal_e0abbc80-0f80-e854-4970-8924a0863dcc_0_i0",
				"node_SceneLight_0_i1",
				"node_SceneLight_1_i2",
				"node_Embers_02ffb866-7fb2-4d15-b761-1012cefb1360_0_i0",
				"node_Lofted_d381e0f5-3def-4a0d-8853-31e9200bcbda_0_i0"
			],
			"extras": {
				"TB_EnvironmentGuid": "ab080599-e465-4a6d-8587-43bf495af68b",
				"TB_Environment": "Standard",
				"TB_UseGradient": "true",
				"TB_SkyColorA": "0.2745098, 0.2745098, 0.3176471",
				"TB_SkyColorB": "0.03529412, 0.03529412, 0.08627451",
				"TB_SkyGradientDirection": "0, 1, 0",
				"TB_FogColor": "0.1647059, 0.1647059, 0.2078431",
				"TB_FogDensity": "0.0025",
				"TB_SkyColorHorizon": "0.2745098, 0.2745098, 0.3176471",
				"TB_SkyColorZenith": "0.03529412, 0.03529412, 0.08627451"
			}
		}
	}
}