{
	"asset": {
		"generator": "Tilt Brush 23.3.d548293cc",
		"version": "1.1",
		"copyright": "Unknown."
	},
	"buffers": {
		"buffer_sketch": {
			"byteLength": 224520,
			"type": "arraybuffer",
			"uri": "sketch.bin"
		}
	},
	"accessors": {
		"accessor_position_Toon_4391385a-df73-4396-9e33-31e4e4930b27_0_i0": {
			"bufferView": "vec3BufferView",
			"byteOffset": 0,
			"byteStride": 12,
			"componentType": 5126,
			"count": 574,
			"max": [ 0.201144651, -0.485044688, 0.64215517 ],
			"min": [ -0.681166053, -0.753333449, -0.973518372 ],
			"type": "VEC3"
		},
		"accessor_normal_Toon_4391385a-df73-4396-9e33-31e4e4930b27_0_i0": {
			"bufferView": "vec3BufferView",
			"byteOffset": 6888,
			"byteStride": 12,
			"componentType": 5126,
			"count": 574,
			"type": "VEC3"
		},
		"accessor_color_Toon_4391385a-df73-4396-9e33-31e4e4930b27_0_i0": {
			"bufferView": "vec4BufferView",
			"byteOffset": 0,
			"byteStride": 16,
			"componentType": 5126,
			"count": 574,
			"type": "VEC4"
		},
		"accessor_tangent_Toon_4391385a-df73-4396-9e33-31e4e4930b27_0_i0": {
			"bufferView": "vec4BufferView",
			"byteOffset": 9184,
			"byteStride": 16,
			"componentType": 5126,
			"count": 574,
			"type": "VEC4"
		},
		"accessor_uv0_Toon_4391385a-df73-4396-9e33-31e4e4930b27_0_i0": {
			"bufferView": "vec3BufferView",
			"byteOffset": 13776,
			"byteStride": 12,
			"componentType": 5126,
			"count": 574,
			"type": "VEC3"
		},
		"accessor_indices_0_Toon_4391385a-df73-4396-9e33-31e4e4930b27_0_i0": {
			"bufferView": "ushortBufferView",
			"byteOffset": 0,
			"byteStride": 0,
			"componentType": 5123,
			"count": 2976,
			"max": [ 573 ],
			"min": [ 0 ],
			"type": "SCALAR"
		},
		"accessor_position_Lofted_d381e0f5-3def-4a0d-8853-31e9200bcbda_0_i0": {
			"bufferView": "vec3BufferView",
			"byteOffset": 20664,
			"byteStride": 12,
			"componentType": 5126,
			"count": 2432,
			"max": [ -0.213420734, 1.1640116, 0.565128863 ],
			"min": [ -0.912680745, 0.396876782, -0.0888602063 ],
			"type": "VEC3"
		},
		"accessor_normal_Lofted_d381e0f5-3def-4a0d-8853-31e9200bcbda_0_i0": {
			"bufferView": "vec3BufferView",
			"byteOffset": 49848,
			"byteStride": 12,
			"componentType": 5126,
			"count": 2432,
			"type": "VEC3"
		},
		"accessor_color_Lofted_d381e0f5-3def-4a0d-8853-31e9200bcbda_0_i0": {
			"bufferView": "vec4BufferView",
			"byteOffset": 18368,
			"byteStride": 16,
			"componentType": 5126,
			"count": 2432,
			"type": "VEC4"
		},
		"accessor_tangent_Lofted_d381e0f5-3def-4a0d-8853-31e9200bcbda_0_i0": {
			"bufferView": "vec4BufferView",
			"byteOffset": 57280,
			"byteStride": 16,
			"componentType": 5126,
			"count": 2432,
			"type": "VEC4"
		},
		"accessor_uv0_Lofted_d381e0f5-3def-4a0d-8853-31e9200bcbda_0_i0": {
			"bufferView": "vec3BufferView",
			"byteOffset": 79032,
			"byteStride": 12,
			"componentType": 5126,
			"count": 2432,
			"type": "VEC3"
		},
		"accessor_indices_0_Lofted_d381e0f5-3def-4a0d-8853-31e9200bcbda_0_i0": {
			"bufferView": "ushortBufferView",
			"byteOffset": 5952,
			"byteStride": 0,
			"componentType": 5123,
			"count": 7080,
			"max": [ 2431 ],
			"min": [ 0 ],
			"type": "SCALAR"
		}
	},
	"bufferViews": {
		"ushortBufferView": {
			"buffer": "buffer_sketch",
			"byteLength": 20112,
			"byteOffset": 0,
			"target": 34963
		},
		"vec3BufferView": {
			"buffer": "buffer_sketch",
			"byteLength": 108216,
			"byteOffset": 20112,
			"target": 34962
		},
		"vec4BufferView": {
			"buffer": "buffer_sketch",
			"byteLength": 96192,
			"byteOffset": 128328,
			"target": 34962
		}
	},
	"meshes": {
		"mesh_Toon_4391385a-df73-4396-9e33-31e4e4930b27_0_i0": {
			"name": "mesh_Toon_4391385a-df73-4396-9e33-31e4e4930b27_0_i0",
			"primitives": [
				{
					"attributes": {
						"POSITION": "accessor_position_Toon_4391385a-df73-4396-9e33-31e4e4930b27_0_i0",
						"NORMAL": "accessor_normal_Toon_4391385a-df73-4396-9e33-31e4e4930b27_0_i0",
						"COLOR": "accessor_color_Toon_4391385a-df73-4396-9e33-31e4e4930b27_0_i0",
						"TANGENT": "accessor_tangent_Toon_4391385a-df73-4396-9e33-31e4e4930b27_0_i0",
						"TEXCOORD_0": "accessor_uv0_Toon_4391385a-df73-4396-9e33-31e4e4930b27_0_i0"
					},
					"indices": "accessor_indices_0_Toon_4391385a-df73-4396-9e33-31e4e4930b27_0_i0",
					"material": "material_4391385a-df73-4396-9e33-31e4e4930b27",
					"mode": 4
				}
			]
		},
		"mesh_Lofted_d381e0f5-3def-4a0d-8853-31e9200bcbda_0_i0": {
			"name": "mesh_Lofted_d381e0f5-3def-4a0d-8853-31e9200bcbda_0_i0",
			"primitives": [
				{
					"attributes": {
						"POSITION": "accessor_position_Lofted_d381e0f5-3def-4a0d-8853-31e9200bcbda_0_i0",
						"NORMAL": "accessor_normal_Lofted_d381e0f5-3def-4a0d-8853-31e9200bcbda_0_i0",
						"COLOR": "accessor_color_Lofted_d381e0f5-3def-4a0d-8853-31e9200bcbda_0_i0",
						"TANGENT": "accessor_tangent_Lofted_d381e0f5-3def-4a0d-8853-31e9200bcbda_0_i0",
						"TEXCOORD_0": "accessor_uv0_Lofted_d381e0f5-3def-4a0d-8853-31e9200bcbda_0_i0"
					},
					"indices": "accessor_indices_0_Lofted_d381e0f5-3def-4a0d-8853-31e9200bcbda_0_i0",
					"material": "material_d381e0f5-3def-4a0d-8853-31e9200bcbda",
					"mode": 4
				}
			]
		}
	},
	"shaders": {
		"vertex_4391385a-df73-4396-9e33-31e4e4930b27": {
			"type": 35633,
			"uri": "https://www.tiltbrush.com/shaders/brushes/Toon-4391385a-df73-4396-9e33-31e4e4930b27/Toon-4391385a-df73-4396-9e33-31e4e4930b27-v10.0-vertex.glsl"
		},
		"fragment_4391385a-df73-4396-9e33-31e4e4930b27": {
			"type": 35632,
			"uri": "https://www.tiltbrush.com/shaders/brushes/Toon-4391385a-df73-4396-9e33-31e4e4930b27/Toon-4391385a-df73-4396-9e33-31e4e4930b27-v10.0-fragment.glsl"
		},
		"vertex_d381e0f5-3def-4a0d-8853-31e9200bcbda": {
			"type": 35633,
			"uri": "https://www.tiltbrush.com/shaders/brushes/Lofted-d381e0f5-3def-4a0d-8853-31e9200bcbda/Lofted-d381e0f5-3def-4a0d-8853-31e9200bcbda-v10.0-vertex.glsl"
		},
		"fragment_d381e0f5-3def-4a0d-8853-31e9200bcbda": {
			"type": 35632,
			"uri": "https://www.tiltbrush.com/shaders/brushes/Lofted-d381e0f5-3def-4a0d-8853-31e9200bcbda/Lofted-d381e0f5-3def-4a0d-8853-31e9200bcbda-v10.0-fragment.glsl"
		}
	},
	"programs": {
		"program_4391385a-df73-4396-9e33-31e4e4930b27": {
			"attributes": [
				"a_position",
				"a_normal",
				"a_color",
				"a_tangent",
				"a_texcoord0"
			],
			"vertexShader": "vertex_4391385a-df73-4396-9e33-31e4e4930b27",
			"fragmentShader": "fragment_4391385a-df73-4396-9e33-31e4e4930b27"
		},
		"program_d381e0f5-3def-4a0d-8853-31e9200bcbda": {
			"attributes": [
				"a_position",
				"a_normal",
				"a_color",
				"a_tangent",
				"a_texcoord0"
			],
			"vertexShader": "vertex_d381e0f5-3def-4a0d-8853-31e9200bcbda",
			"fragmentShader": "fragment_d381e0f5-3def-4a0d-8853-31e9200bcbda"
		}
	},
	"techniques": {
		"technique_4391385a-df73-4396-9e33-31e4e4930b27": {
			"program": "program_4391385a-df73-4396-9e33-31e4e4930b27",
			"parameters": {
				"position": {
					"type": 35665,
					"semantic": "POSITION"
				},
				"normal": {
					"type": 35665,
					"semantic": "NORMAL"
				},
				"color": {
					"type": 35666,
					"semantic": "COLOR"
				},
				"tangent": {
					"type": 35666,
					"semantic": "TANGENT"
				},
				"texcoord0": {
					"type": 35665,
					"semantic": "TEXCOORD_0"
				},
				"modelViewMatrix": {
					"type": 35676,
					"semantic": "MODELVIEW"
				},
				"projectionMatrix": {
					"type": 35676,
					"semantic": "PROJECTION"
				},
				"normalMatrix": {
					"type": 35675,
					"semantic": "MODELVIEWINVERSETRANSPOSE"
				},
				"SceneLight_0_matrix": {
					"type": 35676,
					"semantic": "MODELVIEW",
					"node": "node_SceneLight_0_i1"
				},
				"SceneLight_0_color": {
					"type": 35666,
					"node": "node_SceneLight_0_i1"
				},
				"SceneLight_1_matrix": {
					"type": 35676,
					"semantic": "MODELVIEW",
					"node": "node_SceneLight_1_i2"
				},
				"SceneLight_1_color": {
					"type": 35666,
					"node": "node_SceneLight_1_i2"
				},
				"ambient_light_color": {
					"type": 35666
				},
				"OutlineMax": {
					"type": 5126
				}
			},
			"attributes": {
				"a_position": "position",
				"a_normal": "normal",
				"a_color": "color",
				"a_tangent": "tangent",
				"a_texcoord0": "texcoord0"
			},
			"uniforms": {
				"u_modelViewMatrix": "modelViewMatrix",
				"u_projectionMatrix": "projectionMatrix",
				"u_normalMatrix": "normalMatrix",
				"u_SceneLight_0_matrix": "SceneLight_0_matrix",
				"u_SceneLight_0_color": "SceneLight_0_color",
				"u_SceneLight_1_matrix": "SceneLight_1_matrix",
				"u_SceneLight_1_color": "SceneLight_1_color",
				"u_ambient_light_color": "ambient_light_color",
				"u_OutlineMax": "OutlineMax"
			},
			"states": {
				"enable": [
					2929,
					2884
				],
				"functions": {
					"depthMask": [true]
				}
			}
		},
		"technique_d381e0f5-3def-4a0d-8853-31e9200bcbda": {
			"program": "program_d381e0f5-3def-4a0d-8853-31e9200bcbda",
			"parameters": {
				"position": {
					"type": 35665,
					"semantic": "POSITION"
				},
				"normal": {
					"type": 35665,
					"semantic": "NORMAL"
				},
				"color": {
					"type": 35666,
					"semantic": "COLOR"
				},
				"tangent": {
					"type": 35666,
					"semantic": "TANGENT"
				},
				"texcoord0": {
					"type": 35665,
					"semantic": "TEXCOORD_0"
				},
				"modelViewMatrix": {
					"type": 35676,
					"semantic": "MODELVIEW"
				},
				"projectionMatrix": {
					"type": 35676,
					"semantic": "PROJECTION"
				},
				"normalMatrix": {
					"type": 35675,
					"semantic": "MODELVIEWINVERSETRANSPOSE"
				},
				"SceneLight_0_matrix": {
					"type": 35676,
					"semantic": "MODELVIEW",
					"node": "node_SceneLight_0_i1"
				},
				"SceneLight_0_color": {
					"type": 35666,
					"node": "node_SceneLight_0_i1"
				},
				"SceneLight_1_matrix": {
					"type": 35676,
					"semantic": "MODELVIEW",
					"node": "node_SceneLight_1_i2"
				},
				"SceneLight_1_color": {
					"type": 35666,
					"node": "node_SceneLight_1_i2"
				},
				"ambient_light_color": {
					"type": 35666
				},
				"Color": {
					"type": 35666
				}
			},
			"attributes": {
				"a_position": "position",
				"a_normal": "normal",
				"a_color": "color",
				"a_tangent": "tangent",
				"a_texcoord0": "texcoord0"
			},
			"uniforms": {
				"u_modelViewMatrix": "modelViewMatrix",
				"u_projectionMatrix": "projectionMatrix",
				"u_normalMatrix": "normalMatrix",
				"u_SceneLight_0_matrix": "SceneLight_0_matrix",
				"u_SceneLight_0_color": "SceneLight_0_color",
				"u_SceneLight_1_matrix": "SceneLight_1_matrix",
				"u_SceneLight_1_color": "SceneLight_1_color",
				"u_ambient_light_color": "ambient_light_color",
				"u_Color": "Color"
			},
			"states": {
				"enable": [
					2929,
					2884
				],
				"functions": {
					"depthMask": [true]
				}
			}
		}
	},
	"materials": {
		"material_4391385a-df73-4396-9e33-31e4e4930b27": {
			"technique": "technique_4391385a-df73-4396-9e33-31e4e4930b27",
			"values": {
				"SceneLight_0_color": [0.7780392, 0.8156863, 0.9913726, 1],
				"SceneLight_1_color": [0.4282353, 0.4211765, 0.3458824, 1],
				"ambient_light_color": [0.3921569, 0.3921569, 0.3921569, 1],
				"OutlineMax": 0.005
			},
			"name": "material_4391385a-df73-4396-9e33-31e4e4930b27"
		},
		"material_d381e0f5-3def-4a0d-8853-31e9200bcbda": {
			"technique": "technique_d381e0f5-3def-4a0d-8853-31e9200bcbda",
			"values": {
				"SceneLight_0_color": [0.7780392, 0.8156863, 0.9913726, 1],
				"SceneLight_1_color": [0.4282353, 0.4211765, 0.3458824, 1],
				"ambient_light_color": [0.3921569, 0.3921569, 0.3921569, 1],
				"Color": [1, 1, 1, 1]
			},
			"name": "material_d381e0f5-3def-4a0d-8853-31e9200bcbda"
		}
	},
	"nodes": {
		"node_Toon_4391385a-df73-4396-9e33-31e4e4930b27_0_i0": {
			"name": "node_Toon_4391385a-df73-4396-9e33-31e4e4930b27_0_i0",
			"meshes": [
				"mesh_Toon_4391385a-df73-4396-9e33-31e4e4930b27_0_i0"
			],
			"matrix": [1, 0, 0, 0, 0, 1, 0, 0, 0, 0, 1, 0, 0, 0, 0, 1]
		},
		"node_SceneLight_0_i1": {
			"name": "node_SceneLight_0_i1",
			"light": "SceneLight_0",
			"matrix": [0.898794, 0.2191856, -0.3796406, 0, -0.4383712, 0.449397, -0.7783785, 0, -1.490116E-08, 0.8660254, 0.4999999, 0, -1.620745, -0.1558708, -3.499074, 1]
		},
		"node_SceneLight_1_i2": {
			"name": "node_SceneLight_1_i2",
			"light": "SceneLight_1",
			"matrix": [0.7660444, -0.4924039, -0.4131759, 0, -0.6427876, -0.5868242, -0.4924039, 0, 8.940697E-08, 0.6427876, -0.7660446, 0, -1.560385, -0.2189711, -3.471958, 1]
		},
		"node_Lofted_d381e0f5-3def-4a0d-8853-31e9200bcbda_0_i0": {
			"name": "node_Lofted_d381e0f5-3def-4a0d-8853-31e9200bcbda_0_i0",
			"meshes": [
				"mesh_Lofted_d381e0f5-3def-4a0d-8853-31e9200bcbda_0_i0"
			],
			"matrix": [1, 0, 0, 0, 0, 1, 0, 0, 0, 0, 1, 0, 0, 0, 0, 1]
		}
	},
	"scene": "defaultScene",
	"scenes": {
		"defaultScene": {
			"nodes": [
				"node_Toon_4391385a-df73-4396-9e33-31e4e4930b27_0_i0",
				"node_SceneLight_0_i1",
				"node_SceneLight_1_i2",
				"node_Lofted_d381e0f5-3def-4a0d-8853-31e9200bcbda_0_i0"
			],
			"extras": {
				"TB_EnvironmentGuid": "ab080599-e465-4a6d-8587-43bf495af68b",
				"TB_Environment": "Standard",
				"TB_UseGradient": "true",
				"TB_SkyColorA": "0.2745098, 0.2745098, 0.3176471",
				"TB_SkyColorB": "0.03529412, 0.03529412, 0.08627451",
				"TB_SkyGradientDirection": "0, 1, 0",
				"TB_FogColor": "0.1647059, 0.1647059, 0.2078431",
				"TB_FogDensity": "0.0025",
				"TB_SkyColorHorizon": "0.2745098, 0.2745098, 0.3176471",
				"TB_SkyColorZenith": "0.03529412, 0.03529412, 0.08627451"
			}
		}
	}
}