{
	"asset": {
		"generator": "Tilt Brush 23.3.d548293cc",
		"version": "1.1",
		"copyright": "Unknown."
	},
	"buffers": {
		"buffer_sketch": {
			"byteLength": 4328844,
			"type": "arraybuffer",
			"uri": "sketch.bin"
		}
	},
	"accessors": {
		"accessor_position_Wire_4391385a-cf83-4396-9e33-31e4e4930b27_0_i0": {
			"bufferView": "vec3BufferView",
			"byteOffset": 0,
			"byteStride": 12,
			"componentType": 5126,
			"count": 55571,
			"max": [ 0.353766352, 0.859992683, 0.875045776 ],
			"min": [ 0.0188630577, 0.00243611331, 0.548278868 ],
			"type": "VEC3"
		},
		"accessor_normal_Wire_4391385a-cf83-4396-9e33-31e4e4930b27_0_i0": {
			"bufferView": "vec3BufferView",
			"byteOffset": 666852,
			"byteStride": 12,
			"componentType": 5126,
			"count": 55571,
			"type": "VEC3"
		},
		"accessor_color_Wire_4391385a-cf83-4396-9e33-31e4e4930b27_0_i0": {
			"bufferView": "vec4BufferView",
			"byteOffset": 0,
			"byteStride": 16,
			"componentType": 5126,
			"count": 55571,
			"type": "VEC4"
		},
		"accessor_tangent_Wire_4391385a-cf83-4396-9e33-31e4e4930b27_0_i0": {
			"bufferView": "vec4BufferView",
			"byteOffset": 889136,
			"byteStride": 16,
			"componentType": 5126,
			"count": 55571,
			"type": "VEC4"
		},
		"accessor_uv0_Wire_4391385a-cf83-4396-9e33-31e4e4930b27_0_i0": {
			"bufferView": "vec3BufferView",
			"byteOffset": 1333704,
			"byteStride": 12,
			"componentType": 5126,
			"count": 55571,
			"type": "VEC3"
		},
		"accessor_indices_0_Wire_4391385a-cf83-4396-9e33-31e4e4930b27_0_i0": {
			"bufferView": "ushortBufferView",
			"byteOffset": 0,
			"byteStride": 0,
			"componentType": 5123,
			"count": 261648,
			"max": [ 55570 ],
			"min": [ 0 ],
			"type": "SCALAR"
		},
		"accessor_position_Petal_e0abbc80-0f80-e854-4970-8924a0863dcc_0_i0": {
			"bufferView": "vec3BufferView",
			"byteOffset": 2000556,
			"byteStride": 12,
			"componentType": 5126,
			"count": 310,
			"max": [ 0.249430135, 0.74328661, 0.776264071 ],
			"min": [ 0.127527475, 0.561074853, 0.646598697 ],
			"type": "VEC3"
		},
		"accessor_normal_Petal_e0abbc80-0f80-e854-4970-8924a0863dcc_0_i0": {
			"bufferView": "vec3BufferView",
			"byteOffset": 2004276,
			"byteStride": 12,
			"componentType": 5126,
			"count": 310,
			"type": "VEC3"
		},
		"accessor_color_Petal_e0abbc80-0f80-e854-4970-8924a0863dcc_0_i0": {
			"bufferView": "vec4BufferView",
			"byteOffset": 1778272,
			"byteStride": 16,
			"componentType": 5126,
			"count": 310,
			"type": "VEC4"
		},
		"accessor_tangent_Petal_e0abbc80-0f80-e854-4970-8924a0863dcc_0_i0": {
			"bufferView": "vec4BufferView",
			"byteOffset": 1783232,
			"byteStride": 16,
			"componentType": 5126,
			"count": 310,
			"type": "VEC4"
		},
		"accessor_uv0_Petal_e0abbc80-0f80-e854-4970-8924a0863dcc_0_i0": {
			"bufferView": "vec3BufferView",
			"byteOffset": 2007996,
			"byteStride": 12,
			"componentType": 5126,
			"count": 310,
			"type": "VEC3"
		},
		"accessor_indices_0_Petal_e0abbc80-0f80-e854-4970-8924a0863dcc_0_i0": {
			"bufferView": "ushortBufferView",
			"byteOffset": 523296,
			"byteStride": 0,
			"componentType": 5123,
			"count": 870,
			"max": [ 309 ],
			"min": [ 0 ],
			"type": "SCALAR"
		},
		"accessor_position_Stars_0eb4db27-3f82-408d-b5a1-19ebd7d5b711_0_i0": {
			"bufferView": "vec3BufferView",
			"byteOffset": 2011716,
			"byteStride": 12,
			"componentType": 5126,
			"count": 52,
			"max": [ 0.317909002, 0.791336, 0.929189503 ],
			"min": [ -0.00439562788, 0.41894123, 0.564904392 ],
			"type": "VEC3"
		},
		"accessor_normal_Stars_0eb4db27-3f82-408d-b5a1-19ebd7d5b711_0_i0": {
			"bufferView": "vec3BufferView",
			"byteOffset": 2012340,
			"byteStride": 12,
			"componentType": 5126,
			"count": 52,
			"type": "VEC3"
		},
		"accessor_color_Stars_0eb4db27-3f82-408d-b5a1-19ebd7d5b711_0_i0": {
			"bufferView": "vec4BufferView",
			"byteOffset": 1788192,
			"byteStride": 16,
			"componentType": 5126,
			"count": 52,
			"type": "VEC4"
		},
		"accessor_uv0_Stars_0eb4db27-3f82-408d-b5a1-19ebd7d5b711_0_i0": {
			"bufferView": "vec4BufferView",
			"byteOffset": 1789024,
			"byteStride": 16,
			"componentType": 5126,
			"count": 52,
			"type": "VEC4"
		},
		"accessor_uv1_Stars_0eb4db27-3f82-408d-b5a1-19ebd7d5b711_0_i0": {
			"bufferView": "vec4BufferView",
			"byteOffset": 1789856,
			"byteStride": 16,
			"componentType": 5126,
			"count": 52,
			"type": "VEC4"
		},
		"accessor_indices_0_Stars_0eb4db27-3f82-408d-b5a1-19ebd7d5b711_0_i0": {
			"bufferView": "ushortBufferView",
			"byteOffset": 525036,
			"byteStride": 0,
			"componentType": 5123,
			"count": 78,
			"max": [ 51 ],
			"min": [ 0 ],
			"type": "SCALAR"
		}
	},
	"bufferViews": {
		"ushortBufferView": {
			"buffer": "buffer_sketch",
			"byteLength": 525192,
			"byteOffset": 0,
			"target": 34963
		},
		"vec3BufferView": {
			"buffer": "buffer_sketch",
			"byteLength": 2012964,
			"byteOffset": 525192,
			"target": 34962
		},
		"vec4BufferView": {
			"buffer": "buffer_sketch",
			"byteLength": 1790688,
			"byteOffset": 2538156,
			"target": 34962
		}
	},
	"meshes": {
		"mesh_Wire_4391385a-cf83-4396-9e33-31e4e4930b27_0_i0": {
			"name": "mesh_Wire_4391385a-cf83-4396-9e33-31e4e4930b27_0_i0",
			"primitives": [
				{
					"attributes": {
						"POSITION": "accessor_position_Wire_4391385a-cf83-4396-9e33-31e4e4930b27_0_i0",
						"NORMAL": "accessor_normal_Wire_4391385a-cf83-4396-9e33-31e4e4930b27_0_i0",
						"COLOR": "accessor_color_Wire_4391385a-cf83-4396-9e33-31e4e4930b27_0_i0",
						"TANGENT": "accessor_tangent_Wire_4391385a-cf83-4396-9e33-31e4e4930b27_0_i0",
						"TEXCOORD_0": "accessor_uv0_Wire_4391385a-cf83-4396-9e33-31e4e4930b27_0_i0"
					},
					"indices": "accessor_indices_0_Wire_4391385a-cf83-4396-9e33-31e4e4930b27_0_i0",
					"material": "material_4391385a-cf83-4396-9e33-31e4e4930b27",
					"mode": 4
				}
			]
		},
		"mesh_Petal_e0abbc80-0f80-e854-4970-8924a0863dcc_0_i0": {
			"name": "mesh_Petal_e0abbc80-0f80-e854-4970-8924a0863dcc_0_i0",
			"primitives": [
				{
					"attributes": {
						"POSITION": "accessor_position_Petal_e0abbc80-0f80-e854-4970-8924a0863dcc_0_i0",
						"NORMAL": "accessor_normal_Petal_e0abbc80-0f80-e854-4970-8924a0863dcc_0_i0",
						"COLOR": "accessor_color_Petal_e0abbc80-0f80-e854-4970-8924a0863dcc_0_i0",
						"TANGENT": "accessor_tangent_Petal_e0abbc80-0f80-e854-4970-8924a0863dcc_0_i0",
						"TEXCOORD_0": "accessor_uv0_Petal_e0abbc80-0f80-e854-4970-8924a0863dcc_0_i0"
					},
					"indices": "accessor_indices_0_Petal_e0abbc80-0f80-e854-4970-8924a0863dcc_0_i0",
					"material": "material_e0abbc80-0f80-e854-4970-8924a0863dcc",
					"mode": 4
				}
			]
		},
		"mesh_Stars_0eb4db27-3f82-408d-b5a1-19ebd7d5b711_0_i0": {
			"name": "mesh_Stars_0eb4db27-3f82-408d-b5a1-19ebd7d5b711_0_i0",
			"primitives": [
				{
					"attributes": {
						"POSITION": "accessor_position_Stars_0eb4db27-3f82-408d-b5a1-19ebd7d5b711_0_i0",
						"NORMAL": "accessor_normal_Stars_0eb4db27-3f82-408d-b5a1-19ebd7d5b711_0_i0",
						"COLOR": "accessor_color_Stars_0eb4db27-3f82-408d-b5a1-19ebd7d5b711_0_i0",
						"TEXCOORD_0": "accessor_uv0_Stars_0eb4db27-3f82-408d-b5a1-19ebd7d5b711_0_i0",
						"TEXCOORD_1": "accessor_uv1_Stars_0eb4db27-3f82-408d-b5a1-19ebd7d5b711_0_i0"
					},
					"indices": "accessor_indices_0_Stars_0eb4db27-3f82-408d-b5a1-19ebd7d5b711_0_i0",
					"material": "material_0eb4db27-3f82-408d-b5a1-19ebd7d5b711",
					"mode": 4
				}
			]
		}
	},
	"shaders": {
		"vertex_4391385a-cf83-4396-9e33-31e4e4930b27": {
			"type": 35633,
			"uri": "https://www.tiltbrush.com/shaders/brushes/Wire-4391385a-cf83-4396-9e33-31e4e4930b27/Wire-4391385a-cf83-4396-9e33-31e4e4930b27-v10.0-vertex.glsl"
		},
		"fragment_4391385a-cf83-4396-9e33-31e4e4930b27": {
			"type": 35632,
			"uri": "https://www.tiltbrush.com/shaders/brushes/Wire-4391385a-cf83-4396-9e33-31e4e4930b27/Wire-4391385a-cf83-4396-9e33-31e4e4930b27-v10.0-fragment.glsl"
		},
		"vertex_e0abbc80-0f80-e854-4970-8924a0863dcc": {
			"type": 35633,
			"uri": "https://www.tiltbrush.com/shaders/brushes/Petal-e0abbc80-0f80-e854-4970-8924a0863dcc/Petal-e0abbc80-0f80-e854-4970-8924a0863dcc-v10.0-vertex.glsl"
		},
		"fragment_e0abbc80-0f80-e854-4970-8924a0863dcc": {
			"type": 35632,
			"uri": "https://www.tiltbrush.com/shaders/brushes/Petal-e0abbc80-0f80-e854-4970-8924a0863dcc/Petal-e0abbc80-0f80-e854-4970-8924a0863dcc-v10.0-fragment.glsl"
		},
		"vertex_0eb4db27-3f82-408d-b5a1-19ebd7d5b711": {
			"type": 35633,
			"uri": "https://www.tiltbrush.com/shaders/brushes/Stars-0eb4db27-3f82-408d-b5a1-19ebd7d5b711/Stars-0eb4db27-3f82-408d-b5a1-19ebd7d5b711-v10.0-vertex.glsl"
		},
		"fragment_0eb4db27-3f82-408d-b5a1-19ebd7d5b711": {
			"type": 35632,
			"uri": "https://www.tiltbrush.com/shaders/brushes/Stars-0eb4db27-3f82-408d-b5a1-19ebd7d5b711/Stars-0eb4db27-3f82-408d-b5a1-19ebd7d5b711-v10.0-fragment.glsl"
		}
	},
	"programs": {
		"program_4391385a-cf83-4396-9e33-31e4e4930b27": {
			"attributes": [
				"a_position",
				"a_normal",
				"a_color",
				"a_tangent",
				"a_texcoord0"
			],
			"vertexShader": "vertex_4391385a-cf83-4396-9e33-31e4e4930b27",
			"fragmentShader": "fragment_4391385a-cf83-4396-9e33-31e4e4930b27"
		},
		"program_e0abbc80-0f80-e854-4970-8924a0863dcc": {
			"attributes": [
				"a_position",
				"a_normal",
				"a_color",
				"a_tangent",
				"a_texcoord0"
			],
			"vertexShader": "vertex_e0abbc80-0f80-e854-4970-8924a0863dcc",
			"fragmentShader": "fragment_e0abbc80-0f80-e854-4970-8924a0863dcc"
		},
		"program_0eb4db27-3f82-408d-b5a1-19ebd7d5b711": {
			"attributes": [
				"a_position",
				"a_normal",
				"a_color",
				"a_vertexId",
				"a_texcoord0",
				"a_texcoord1"
			],
			"vertexShader": "vertex_0eb4db27-3f82-408d-b5a1-19ebd7d5b711",
			"fragmentShader": "fragment_0eb4db27-3f82-408d-b5a1-19ebd7d5b711"
		}
	},
	"techniques": {
		"technique_4391385a-cf83-4396-9e33-31e4e4930b27": {
			"program": "program_4391385a-cf83-4396-9e33-31e4e4930b27",
			"parameters": {
				"position": {
					"type": 35665,
					"semantic": "POSITION"
				},
				"normal": {
					"type": 35665,
					"semantic": "NORMAL"
				},
				"color": {
					"type": 35666,
					"semantic": "COLOR"
				},
				"tangent": {
					"type": 35666,
					"semantic": "TANGENT"
				},
				"texcoord0": {
					"type": 35665,
					"semantic": "TEXCOORD_0"
				},
				"modelViewMatrix": {
					"type": 35676,
					"semantic": "MODELVIEW"
				},
				"projectionMatrix": {
					"type": 35676,
					"semantic": "PROJECTION"
				},
				"normalMatrix": {
					"type": 35675,
					"semantic": "MODELVIEWINVERSETRANSPOSE"
				},
				"SceneLight_0_matrix": {
					"type": 35676,
					"semantic": "MODELVIEW",
					"node": "node_SceneLight_0_i1"
				},
				"SceneLight_0_color": {
					"type": 35666,
					"node": "node_SceneLight_0_i1"
				},
				"SceneLight_1_matrix": {
					"type": 35676,
					"semantic": "MODELVIEW",
					"node": "node_SceneLight_1_i2"
				},
				"SceneLight_1_color": {
					"type": 35666,
					"node": "node_SceneLight_1_i2"
				},
				"ambient_light_color": {
					"type": 35666
				},
				"Cutoff": {
					"type": 5126
				}
			},
			"attributes": {
				"a_position": "position",
				"a_normal": "normal",
				"a_color": "color",
				"a_tangent": "tangent",
				"a_texcoord0": "texcoord0"
			},
			"uniforms": {
				"u_modelViewMatrix": "modelViewMatrix",
				"u_projectionMatrix": "projectionMatrix",
				"u_normalMatrix": "normalMatrix",
				"u_SceneLight_0_matrix": "SceneLight_0_matrix",
				"u_SceneLight_0_color": "SceneLight_0_color",
				"u_SceneLight_1_matrix": "SceneLight_1_matrix",
				"u_SceneLight_1_color": "SceneLight_1_color",
				"u_ambient_light_color": "ambient_light_color",
				"u_Cutoff": "Cutoff"
			},
			"states": {
				"enable": [
					2929
				],
				"functions": {
					"depthMask": [true]
				}
			}
		},
		"technique_e0abbc80-0f80-e854-4970-8924a0863dcc": {
			"program": "program_e0abbc80-0f80-e854-4970-8924a0863dcc",
			"parameters": {
				"position": {
					"type": 35665,
					"semantic": "POSITION"
				},
				"normal": {
					"type": 35665,
					"semantic": "NORMAL"
				},
				"color": {
					"type": 35666,
					"semantic": "COLOR"
				},
				"tangent": {
					"type": 35666,
					"semantic": "TANGENT"
				},
				"texcoord0": {
					"type": 35665,
					"semantic": "TEXCOORD_0"
				},
				"modelViewMatrix": {
					"type": 35676,
					"semantic": "MODELVIEW"
				},
				"projectionMatrix": {
					"type": 35676,
					"semantic": "PROJECTION"
				},
				"normalMatrix": {
					"type": 35675,
					"semantic": "MODELVIEWINVERSETRANSPOSE"
				},
				"SceneLight_0_matrix": {
					"type": 35676,
					"semantic": "MODELVIEW",
					"node": "node_SceneLight_0_i1"
				},
				"SceneLight_0_color": {
					"type": 35666,
					"node": "node_SceneLight_0_i1"
				},
				"SceneLight_1_matrix": {
					"type": 35676,
					"semantic": "MODELVIEW",
					"node": "node_SceneLight_1_i2"
				},
				"SceneLight_1_color": {
					"type": 35666,
					"node": "node_SceneLight_1_i2"
				},
				"ambient_light_color": {
					"type": 35666
				},
				"Shininess": {
					"type": 5126
				},
				"SpecColor": {
					"type": 35666
				}
			},
			"attributes": {
				"a_position": "position",
				"a_normal": "normal",
				"a_color": "color",
				"a_tangent": "tangent",
				"a_texcoord0": "texcoord0"
			},
			"uniforms": {
				"u_modelViewMatrix": "modelViewMatrix",
				"u_projectionMatrix": "projectionMatrix",
				"u_normalMatrix": "normalMatrix",
				"u_SceneLight_0_matrix": "SceneLight_0_matrix",
				"u_SceneLight_0_color": "SceneLight_0_color",
				"u_SceneLight_1_matrix": "SceneLight_1_matrix",
				"u_SceneLight_1_color": "SceneLight_1_color",
				"u_ambient_light_color": "ambient_light_color",
				"u_Shininess": "Shininess",
				"u_SpecColor": "SpecColor"
			},
			"states": {
				"enable": [
					2929
				],
				"functions": {
					"depthMask": [true]
				}
			}
		},
		"technique_0eb4db27-3f82-408d-b5a1-19ebd7d5b711": {
			"program": "program_0eb4db27-3f82-408d-b5a1-19ebd7d5b711",
			"parameters": {
				"position": {
					"type": 35665,
					"semantic": "POSITION"
				},
				"normal": {
					"type": 35665,
					"semantic": "NORMAL"
				},
				"color": {
					"type": 35666,
					"semantic": "COLOR"
				},
				"vertexId": {
					"type": 5126
				},
				"texcoord0": {
					"type": 35666,
					"semantic": "TEXCOORD_0"
				},
				"texcoord1": {
					"type": 35666,
					"semantic": "TEXCOORD_1"
				},
				"modelViewMatrix": {
					"type": 35676,
					"semantic": "MODELVIEW"
				},
				"projectionMatrix": {
					"type": 35676,
					"semantic": "PROJECTION"
				},
				"normalMatrix": {
					"type": 35675,
					"semantic": "MODELVIEWINVERSETRANSPOSE"
				},
				"SceneLight_0_matrix": {
					"type": 35676,
					"semantic": "MODELVIEW",
					"node": "node_SceneLight_0_i1"
				},
				"SceneLight_0_color": {
					"type": 35666,
					"node": "node_SceneLight_0_i1"
				},
				"SceneLight_1_matrix": {
					"type": 35676,
					"semantic": "MODELVIEW",
					"node": "node_SceneLight_1_i2"
				},
				"SceneLight_1_color": {
					"type": 35666,
					"node": "node_SceneLight_1_i2"
				},
				"ambient_light_color": {
					"type": 35666
				},
				"SparkleRate": {
					"type": 5126
				},
				"SpreadRate": {
					"type": 5126
				},
				"MainTex_TexelSize": {
					"type": 35666
				},
				"MainTex": {
					"type": 35678
				}
			},
			"attributes": {
				"a_position": "position",
				"a_normal": "normal",
				"a_color": "color",
				"a_vertexId": "vertexId",
				"a_texcoord0": "texcoord0",
				"a_texcoord1": "texcoord1"
			},
			"uniforms": {
				"u_modelViewMatrix": "modelViewMatrix",
				"u_projectionMatrix": "projectionMatrix",
				"u_normalMatrix": "normalMatrix",
				"u_SceneLight_0_matrix": "SceneLight_0_matrix",
				"u_SceneLight_0_color": "SceneLight_0_color",
				"u_SceneLight_1_matrix": "SceneLight_1_matrix",
				"u_SceneLight_1_color": "SceneLight_1_color",
				"u_ambient_light_color": "ambient_light_color",
				"u_SparkleRate": "SparkleRate",
				"u_SpreadRate": "SpreadRate",
				"u_MainTex_TexelSize": "MainTex_TexelSize",
				"u_MainTex": "MainTex"
			},
			"states": {
				"enable": [
					2929,
					3042
				],
				"functions": {
					"blendFuncSeparate": [1, 1, 1, 1],
					"depthMask": [false]
				}
			}
		}
	},
	"samplers": {
		"sampler_LINEAR_LINEAR_MIPMAP_LINEAR_REPEAT": {
			"magFilter": 9729,
			"minFilter": 9987,
			"wrapS": 10497,
			"wrapT": 10497
		}
	},
	"textures": {
		"texture_0eb4db27-3f82-408d-b5a1-19ebd7d5b711_MainTex": {
			"format": 6408,
			"internalFormat": 6408,
			"sampler": "sampler_LINEAR_LINEAR_MIPMAP_LINEAR_REPEAT",
			"source": "image_0eb4db27-3f82-408d-b5a1-19ebd7d5b711_MainTex",
			"target": 3553,
			"type": 5121
		}
	},
	"images": {
		"image_0eb4db27-3f82-408d-b5a1-19ebd7d5b711_MainTex": {
			"uri": "https://www.tiltbrush.com/shaders/brushes/Stars-0eb4db27-3f82-408d-b5a1-19ebd7d5b711/Stars-0eb4db27-3f82-408d-b5a1-19ebd7d5b711-v10.0-MainTex.png"
		}
	},
	"materials": {
		"material_4391385a-cf83-4396-9e33-31e4e4930b27": {
			"technique": "technique_4391385a-cf83-4396-9e33-31e4e4930b27",
			"values": {
				"SceneLight_0_color": [0.7780392, 0.8156863, 0.9913726, 1],
				"SceneLight_1_color": [0.4282353, 0.4211765, 0.3458824, 1],
				"ambient_light_color": [0.3921569, 0.3921569, 0.3921569, 1],
				"Cutoff": 0.067
			},
			"name": "material_4391385a-cf83-4396-9e33-31e4e4930b27"
		},
		"material_e0abbc80-0f80-e854-4970-8924a0863dcc": {
			"technique": "technique_e0abbc80-0f80-e854-4970-8924a0863dcc",
			"values": {
				"SceneLight_0_color": [0.7780392, 0.8156863, 0.9913726, 1],
				"SceneLight_1_color": [0.4282353, 0.4211765, 0.3458824, 1],
				"ambient_light_color": [0.3921569, 0.3921569, 0.3921569, 1],
				"Shininess": 0.01,
				"SpecColor": [0, 0, 0, 0]
			},
			"name": "material_e0abbc80-0f80-e854-4970-8924a0863dcc"
		},
		"material_0eb4db27-3f82-408d-b5a1-19ebd7d5b711": {
			"technique": "technique_0eb4db27-3f82-408d-b5a1-19ebd7d5b711",
			"values": {
				"SceneLight_0_color": [0.7780392, 0.8156863, 0.9913726, 1],
				"SceneLight_1_color": [0.4282353, 0.4211765, 0.3458824, 1],
				"ambient_light_color": [0.3921569, 0.3921569, 0.3921569, 1],
				"SparkleRate": 5.3,
				"SpreadRate": 1.539,
				"MainTex_TexelSize": [0.001953125, 0.001953125, 512, 512],
				"MainTex": "texture_0eb4db27-3f82-408d-b5a1-19ebd7d5b711_MainTex"
			},
			"name": "material_0eb4db27-3f82-408d-b5a1-19ebd7d5b711"
		}
	},
	"nodes": {
		"node_Wire_4391385a-cf83-4396-9e33-31e4e4930b27_0_i0": {
			"name": "node_Wire_4391385a-cf83-4396-9e33-31e4e4930b27_0_i0",
			"meshes": [
				"mesh_Wire_4391385a-cf83-4396-9e33-31e4e4930b27_0_i0"
			],
			"matrix": [1, 0, 0, 0, 0, 1, 0, 0, 0, 0, 1, 0, 0, 0, 0, 1]
		},
		"node_SceneLight_0_i1": {
			"name": "node_SceneLight_0_i1",
			"light": "SceneLight_0",
			"matrix": [0.898794, 0.2191856, -0.3796406, 0, -0.4383712, 0.449397, -0.7783785, 0, -1.490116E-08, 0.8660254, 0.4999999, 0, 0.9293734, -0.865097, -0.6451522, 1]
		},
		"node_SceneLight_1_i2": {
			"name": "node_SceneLight_1_i2",
			"light": "SceneLight_1",
			"matrix": [0.7660444, -0.4924039, -0.4131759, 0, -0.6427876, -0.5868242, -0.4924039, 0, 8.940697E-08, 0.6427876, -0.7660446, 0, 0.9293734, -0.8898053, -0.78528, 1]
		},
		"node_Petal_e0abbc80-0f80-e854-4970-8924a0863dcc_0_i0": {
			"name": "node_Petal_e0abbc80-0f80-e854-4970-8924a0863dcc_0_i0",
			"meshes": [
				"mesh_Petal_e0abbc80-0f80-e854-4970-8924a0863dcc_0_i0"
			],
			"matrix": [1, 0, 0, 0, 0, 1, 0, 0, 0, 0, 1, 0, 0, 0, 0, 1]
		},
		"node_Stars_0eb4db27-3f82-408d-b5a1-19ebd7d5b711_0_i0": {
			"name": "node_Stars_0eb4db27-3f82-408d-b5a1-19ebd7d5b711_0_i0",
			"meshes": [
				"mesh_Stars_0eb4db27-3f82-408d-b5a1-19ebd7d5b711_0_i0"
			],
			"matrix": [1, 0, 0, 0, 0, 1, 0, 0, 0, 0, 1, 0, 0, 0, 0, 1]
		}
	},
	"scene": "defaultScene",
	"scenes": {
		"defaultScene": {
			"nodes": [
				"node_Wire_4391385a-cf83-4396-9e33-31e4e4930b27_0_i0",
				"node_SceneLight_0_i1",
				"node_SceneLight_1_i2",
				"node_Petal_e0abbc80-0f80-e854-4970-8924a0863dcc_0_i0",
				"node_Stars_0eb4db27-3f82-408d-b5a1-19ebd7d5b711_0_i0"
			],
			"extras": {
				"TB_EnvironmentGuid": "ab080599-e465-4a6d-8587-43bf495af68b",
				"TB_Environment": "Standard",
				"TB_UseGradient": "true",
				"TB_SkyColorA": "0.2745098, 0.2745098, 0.3176471",
				"TB_SkyColorB": "0.03529412, 0.03529412, 0.08627451",
				"TB_SkyGradientDirection": "0, 1, 0",
				"TB_FogColor": "0.1647059, 0.1647059, 0.2078431",
				"TB_FogDensity": "0.0025",
				"TB_SkyColorHorizon": "0.2745098, 0.2745098, 0.3176471",
				"TB_SkyColorZenith": "0.03529412, 0.03529412, 0.08627451"
			}
		}
	}
}